<?xml version="1.0" encoding="iso-8859-1"?>
<!-- Generator: Adobe Illustrator 19.0.0, SVG Export Plug-In . SVG Version: 6.00 Build 0)  -->
<svg version="1.1" id="Layer_1" xmlns="http://www.w3.org/2000/svg" xmlns:xlink="http://www.w3.org/1999/xlink" x="0px" y="0px"
	 viewBox="0 0 512 512" style="enable-background:new 0 0 512 512;" xml:space="preserve">
<polygon style="fill:#FF8C29;" points="12.396,81.381 12.396,421.996 81.381,421.996 81.381,503.916 165.457,421.996 
	314.206,421.996 314.206,81.381 "/>
<polygon style="fill:#FD6A33;" points="12.396,81.381 12.396,421.996 81.381,421.996 81.381,503.916 165.457,421.996 
	167.613,421.996 167.613,81.381 "/>
<g>
	<path style="fill:#FFFFFF;" d="M253.844,142.282H72.758c-4.465,0-8.084,3.62-8.084,8.084v25.869c0,4.465,3.62,8.084,8.084,8.084
		h181.086c4.466,0,8.084-3.62,8.084-8.084v-25.869C261.928,145.902,258.31,142.282,253.844,142.282z"/>
	<path style="fill:#FFFFFF;" d="M253.844,228.514H72.758c-4.465,0-8.084,3.62-8.084,8.084v25.869c0,4.465,3.62,8.084,8.084,8.084
		h181.086c4.466,0,8.084-3.62,8.084-8.084v-25.869C261.928,232.133,258.31,228.514,253.844,228.514z"/>
	<path style="fill:#FFFFFF;" d="M253.844,314.745H72.758c-4.465,0-8.084,3.62-8.084,8.084v25.869c0,4.465,3.62,8.084,8.084,8.084
		h181.086c4.466,0,8.084-3.62,8.084-8.084v-25.869C261.928,318.365,258.31,314.745,253.844,314.745z"/>
</g>
<path style="fill:#4ACFD9;" d="M499.604,174.08c0-91.677-80.11-165.996-178.931-165.996S141.743,82.403,141.743,174.08
	s80.11,165.996,178.931,165.996c16.278,0,32.044-2.029,47.033-5.808l84.47,31.677l-28.169-56.337
	C469.749,279.539,499.604,230.045,499.604,174.08z"/>
<path style="fill:#0295AA;" d="M320.674,340.076V8.084c-98.82,0-178.931,74.319-178.931,165.996S221.853,340.076,320.674,340.076z"
	/>
<g>
	<path style="fill:#FFFFFF;" d="M467.267,182.164c-4.466,0-8.084-3.62-8.084-8.084c0-19.045-4.607-37.349-13.693-54.402
		c-2.099-3.94-0.608-8.837,3.334-10.936c3.941-2.101,8.837-0.607,10.936,3.334c10.346,19.418,15.591,40.28,15.591,62.005
		C475.352,178.545,471.733,182.164,467.267,182.164z"/>
	<path style="fill:#FFFFFF;" d="M426.303,89.577c-1.996,0-3.998-0.735-5.561-2.217c-26.428-25.057-61.966-38.855-100.069-38.855
		c-4.466,0-8.084-3.62-8.084-8.084s3.618-8.084,8.084-8.084c42.259,0,81.749,15.374,111.192,43.289
		c3.24,3.072,3.377,8.189,0.304,11.429C430.581,88.731,428.444,89.577,426.303,89.577z"/>
	<path style="fill:#FFFFFF;" d="M312.051,155.217c-17.534,0-31.798,14.265-31.798,31.798s14.264,31.798,31.798,31.798
		s31.798-14.265,31.798-31.798S329.585,155.217,312.051,155.217z"/>
	<path style="fill:#FFFFFF;" d="M398.282,155.217c-17.534,0-31.798,14.265-31.798,31.798s14.264,31.798,31.798,31.798
		c17.534,0,31.798-14.265,31.798-31.798S415.816,155.217,398.282,155.217z"/>
	<path style="fill:#FFFFFF;" d="M225.819,155.217c-17.533,0-31.798,14.265-31.798,31.798s14.265,31.798,31.798,31.798
		s31.798-14.265,31.798-31.798S243.352,155.217,225.819,155.217z"/>
</g>
<path d="M434.389,312.293c46.03-32.869,73.299-84.029,73.299-138.213C507.688,78.092,423.794,0,320.674,0
	c-60.71,0-117.377,27.33-152.487,73.297H12.396c-4.465,0-8.084,3.62-8.084,8.084v340.615c0,4.465,3.62,8.084,8.084,8.084h60.901
	v73.836c0,3.251,1.947,6.185,4.942,7.448c1.014,0.428,2.081,0.636,3.14,0.636c2.068,0,4.104-0.793,5.643-2.294l81.723-79.626
	h145.462c4.466,0,8.084-3.62,8.084-8.084v-73.859c15.185-0.121,30.277-1.932,44.916-5.422l82.131,30.8
	c0.925,0.347,1.886,0.515,2.837,0.515c2.25,0,4.447-0.94,6.01-2.675c2.225-2.471,2.71-6.051,1.222-9.024L434.389,312.293z
	 M165.457,413.912c-2.108,0-4.133,0.824-5.642,2.294l-70.35,68.547v-62.756c0-4.465-3.62-8.084-8.084-8.084H20.48V89.465h136.74
	c-9.8,16.424-16.734,34.365-20.411,52.817H72.758c-4.465,0-8.084,3.62-8.084,8.084v25.869c0,4.465,3.62,8.084,8.084,8.084h61.235
	c0.939,15.119,3.953,29.916,9.003,44.194H72.758c-4.465,0-8.084,3.62-8.084,8.084v25.869c0,4.465,3.62,8.084,8.084,8.084h92.257
	c12.301,17.171,27.697,32.12,45.468,44.194H72.758c-4.465,0-8.084,3.62-8.084,8.084v25.869c0,4.465,3.62,8.084,8.084,8.084h181.086
	c4.466,0,8.084-3.62,8.084-8.084v-9.315c14.293,4.4,29.09,7.162,44.194,8.242v66.286H165.457z M149.704,244.682
	c1.564,3.278,3.237,6.515,5.019,9.701H80.842v-9.701H149.704z M133.774,168.152H80.842v-9.701h53.602
	C134.132,161.683,133.893,164.92,133.774,168.152z M239.464,330.914c2.08,0.935,4.181,1.835,6.296,2.697v7.004H80.842v-9.701
	H239.464z M370.546,326.699c-1.542-0.578-3.219-0.67-4.816-0.269c-14.638,3.691-29.796,5.562-45.056,5.562
	c-1.858,0-3.828-0.037-6.2-0.115h-0.001l0,0c-19.966-0.657-39.411-4.477-57.798-11.349c-4.066-1.52-8.135-3.215-12.095-5.04
	c-28.158-12.974-51.903-32.868-68.671-57.536c-0.002-0.003-0.005-0.008-0.008-0.011c-0.003-0.005-0.008-0.011-0.011-0.015
	c0-0.001-0.001-0.001-0.001-0.002c-5.27-7.757-9.83-15.988-13.558-24.469c-0.001-0.002-0.002-0.005-0.003-0.008
	c-0.013-0.03-0.028-0.06-0.041-0.091c-0.001-0.001-0.001-0.003-0.001-0.004c-7.975-18.184-12.158-37.437-12.429-57.227
	c0,0,0,0,0-0.001v-0.001l-0.013-0.739c-0.008-0.434-0.016-0.869-0.016-1.304c0-7.468,0.582-15.031,1.731-22.481v-0.001
	c3.642-23.619,12.795-45.643,27.204-65.464c31.849-43.809,84.898-69.965,141.91-69.965c94.205,0,170.846,70.839,170.846,157.912
	c0,51.015-26.898,99.154-71.953,128.773c-3.423,2.251-4.622,6.707-2.79,10.37l18.961,37.924L370.546,326.699z"/>
<path d="M312.051,155.217c-17.534,0-31.798,14.265-31.798,31.798s14.264,31.798,31.798,31.798s31.798-14.265,31.798-31.798
	S329.585,155.217,312.051,155.217z M312.051,202.644c-8.618,0-15.629-7.012-15.629-15.629c0-8.618,7.012-15.629,15.629-15.629
	s15.629,7.012,15.629,15.629C327.68,195.632,320.668,202.644,312.051,202.644z"/>
<path d="M430.08,187.015c0-17.533-14.264-31.798-31.798-31.798c-17.534,0-31.798,14.265-31.798,31.798s14.264,31.798,31.798,31.798
	C415.816,218.813,430.08,204.548,430.08,187.015z M398.282,202.644c-8.618,0-15.629-7.012-15.629-15.629
	c0-8.618,7.012-15.629,15.629-15.629c8.618,0,15.629,7.012,15.629,15.629C413.912,195.632,406.9,202.644,398.282,202.644z"/>
<path d="M225.819,155.217c-17.533,0-31.798,14.265-31.798,31.798s14.265,31.798,31.798,31.798s31.798-14.265,31.798-31.798
	S243.352,155.217,225.819,155.217z M225.819,202.644c-8.618,0-15.629-7.012-15.629-15.629c0-8.618,7.012-15.629,15.629-15.629
	s15.629,7.012,15.629,15.629C241.448,195.632,234.437,202.644,225.819,202.644z"/>
<g>
</g>
<g>
</g>
<g>
</g>
<g>
</g>
<g>
</g>
<g>
</g>
<g>
</g>
<g>
</g>
<g>
</g>
<g>
</g>
<g>
</g>
<g>
</g>
<g>
</g>
<g>
</g>
<g>
</g>
</svg>
